<svg
  width="36"
  height="40"
  viewBox="0 0 36 40"
  fill="none"
  xmlns="http://www.w3.org/2000/svg"
>
  <mask
    id="path-1-outside-1"
    maskUnits="userSpaceOnUse"
    x="-0.130307"
    y="-0.1752"
    width="36.7305"
    height="40.1303"
    fill="#141414"
  >
    <rect
      fill="white"
      x="-0.130307"
      y="-0.1752"
      width="36.7305"
      height="40.1303"
    />
    <path d="M29.5212 36.5567C28.6392 36.8993 27.4041 37.389 26.7656 37.6421L25.6078 38.1033L25.4246 37.9648C25.3228 37.8884 24.5571 37.29 23.7212 36.631C22.8844 35.9775 21.998 35.2776 21.7438 35.0839C21.4951 34.891 20.8565 34.3895 20.3245 33.9706C17.9161 32.0865 16.6389 31.0834 15.5078 30.2024C12.8918 28.1538 12.344 27.727 10.2348 26.0768C9.03889 25.1359 7.56277 23.9864 6.96521 23.5132C6.36687 23.0455 5.23097 22.1582 4.43924 21.5449L3.00813 20.4356L3.43659 17.4888L3.86978 14.5484L4.55631 14.2739C5.47379 13.9195 10.7713 11.786 15.8118 9.75691C16.4392 9.5022 17.7287 8.98642 18.6785 8.60276C19.6338 8.21988 21.7296 7.37898 23.3367 6.72795C24.9494 6.0777 26.6156 5.40688 27.0397 5.23602C27.4692 5.06593 28.3954 4.69019 29.1008 4.40147C29.8062 4.11274 30.4132 3.88329 30.4408 3.8872C30.4739 3.89189 31.4858 4.66029 32.6991 5.59799C33.9123 6.53569 34.9582 7.34268 35.0253 7.38597L35.1445 7.45916L33.1293 21.6927L31.1142 35.9262L29.5212 36.5567ZM34.2387 8.32775C34.2111 8.32384 33.4544 8.61657 32.5527 8.97888C31.6565 9.34197 30.5995 9.76677 30.2054 9.92498C29.8121 10.0777 28.8324 10.474 28.0261 10.7991C27.2197 11.1242 25.9176 11.6495 25.1294 11.9659C24.3413 12.2823 22.8657 12.8788 21.8442 13.2917C19.2818 14.3256 17.7109 14.9593 17.0071 15.2369C16.6784 15.3706 15.6703 15.7686 14.7686 16.1309C13.8669 16.4932 12.9534 16.8594 12.739 16.9417C12.5301 17.0248 12.348 17.1173 12.3331 17.1433C12.3181 17.1694 12.7002 17.4938 13.1715 17.8646C13.9427 18.4638 14.0461 18.5291 14.1698 18.4903C14.2416 18.461 15.3222 18.0283 16.5707 17.5236C17.8184 17.0245 19.1505 16.4865 19.5264 16.337C19.9024 16.1875 20.8987 15.7935 21.735 15.4558C23.1569 14.8799 24.0586 14.5176 27.2902 13.2123C29.334 12.381 29.5838 12.2868 29.628 12.2931C29.6501 12.2962 28.8898 17.8654 27.9323 24.6683L26.1987 37.0325L26.6463 36.8537C26.8907 36.7587 27.8216 36.3893 28.7044 36.0412C29.5927 35.6939 30.3509 35.3901 30.3943 35.3625C30.4494 35.3309 30.8592 32.5561 32.378 21.8285C33.5325 13.6737 34.2663 8.33166 34.2387 8.32775ZM32.619 6.52153C31.9133 5.97671 31.1058 5.35552 30.8272 5.13585C30.3812 4.78549 30.3078 4.74693 30.1998 4.7936C30.0493 4.86239 23.7894 7.38901 21.1505 8.44588C19.1682 9.2409 14.7015 11.0358 10.699 12.6543C9.46864 13.1503 7.68967 13.8615 6.74619 14.2404C5.79798 14.613 5.02634 14.9318 5.02322 14.9539C5.02087 14.9704 5.98234 15.7373 7.16403 16.6593C8.34019 17.5805 9.8763 18.7835 10.5709 19.3268C12.1118 20.5361 13.2532 21.4242 14.0939 22.0895C14.4436 22.3643 14.9204 22.7359 15.1596 22.9162C15.6221 23.2689 18.452 25.4774 20.3575 26.9749C21.0017 27.4772 21.9797 28.2465 22.5378 28.6803C23.0959 29.1141 23.5679 29.4794 23.5932 29.4999C23.6137 29.5141 23.6998 29.025 23.7874 28.4067L23.9468 27.2803L23.6326 27.0331C23.455 26.8953 22.9483 26.4969 22.5015 26.1521C22.0555 25.8017 20.8485 24.8593 19.8137 24.0539C18.7844 23.2492 17.3335 22.1202 16.5931 21.5423C14.6512 20.0227 13.1254 18.8268 11.8671 17.8489C11.2577 17.3797 10.7525 16.9702 10.7446 16.9466C10.7312 16.9221 11.0512 16.7703 11.4508 16.6129C15.272 15.0814 16.7948 14.4691 19.972 13.19C21.9906 12.3776 24.3023 11.4433 25.1087 11.1182C25.915 10.7931 27.0555 10.3351 27.6467 10.0977C28.2378 9.86042 29.0315 9.54477 29.4083 9.38974C29.785 9.2347 30.9492 8.76875 31.9936 8.35343C33.0332 7.93181 33.8892 7.57429 33.8923 7.55221C33.8954 7.53012 33.3192 7.06557 32.619 6.52153ZM28.6659 13.5198C28.6375 13.5214 28.1543 13.712 27.5923 13.9422L26.5653 14.3544L25.3897 22.6582C24.3282 30.1559 24.2022 30.9659 24.1296 30.9219C24.0878 30.899 23.4634 30.4164 22.749 29.8535C22.0338 29.296 20.7061 28.252 19.7983 27.5434C18.8906 26.8348 17.7302 25.9215 17.2132 25.516C16.6961 25.1105 15.1797 23.9272 13.841 22.8816C11.5787 21.1196 10.9393 20.6236 8.21199 18.4859C5.25107 16.1688 4.53038 15.6106 4.5083 15.6075C4.49173 15.6051 4.33764 16.6139 4.16255 17.8507L3.84362 20.1033L4.45696 20.5844C4.79718 20.8465 5.25817 21.2103 5.48708 21.3835C5.98042 21.7575 6.61903 22.259 12.3885 26.7759C14.8427 28.6947 17.3063 30.626 17.8644 31.0598C18.4225 31.4936 19.9081 32.6557 21.16 33.6383C24.4248 36.1956 25.3476 36.9176 25.3752 36.9215C25.3863 36.9231 26.143 31.6575 27.0552 25.2143C27.9667 18.7766 28.6895 13.5118 28.6659 13.5198ZM25.6912 14.7206C25.6691 14.7174 24.7391 15.0814 23.6167 15.5307C22.4943 15.98 21.2158 16.4974 20.7744 16.6714C20.3322 16.851 19.0427 17.3668 17.9077 17.8256C16.7727 18.2844 15.6149 18.7456 15.328 18.8626C15.0363 18.9734 14.8062 19.0873 14.8133 19.1164C14.8205 19.1456 16.1916 20.2408 17.8651 21.5478C23.5746 26.0112 23.9906 26.3348 24.0324 26.3576C24.0529 26.3718 24.4447 23.7634 24.8989 20.5556C25.3531 17.3478 25.7078 14.7229 25.6912 14.7206Z"/>
  </mask>
  <path
    d="M29.5212 36.5567C28.6392 36.8993 27.4041 37.389 26.7656 37.6421L25.6078 38.1033L25.4246 37.9648C25.3228 37.8884 24.5571 37.29 23.7212 36.631C22.8844 35.9775 21.998 35.2776 21.7438 35.0839C21.4951 34.891 20.8565 34.3895 20.3245 33.9706C17.9161 32.0865 16.6389 31.0834 15.5078 30.2024C12.8918 28.1538 12.344 27.727 10.2348 26.0768C9.03889 25.1359 7.56277 23.9864 6.96521 23.5132C6.36687 23.0455 5.23097 22.1582 4.43924 21.5449L3.00813 20.4356L3.43659 17.4888L3.86978 14.5484L4.55631 14.2739C5.47379 13.9195 10.7713 11.786 15.8118 9.75691C16.4392 9.5022 17.7287 8.98642 18.6785 8.60276C19.6338 8.21988 21.7296 7.37898 23.3367 6.72795C24.9494 6.0777 26.6156 5.40688 27.0397 5.23602C27.4692 5.06593 28.3954 4.69019 29.1008 4.40147C29.8062 4.11274 30.4132 3.88329 30.4408 3.8872C30.4739 3.89189 31.4858 4.66029 32.6991 5.59799C33.9123 6.53569 34.9582 7.34268 35.0253 7.38597L35.1445 7.45916L33.1293 21.6927L31.1142 35.9262L29.5212 36.5567ZM34.2387 8.32775C34.2111 8.32384 33.4544 8.61657 32.5527 8.97888C31.6565 9.34197 30.5995 9.76677 30.2054 9.92498C29.8121 10.0777 28.8324 10.474 28.0261 10.7991C27.2197 11.1242 25.9176 11.6495 25.1294 11.9659C24.3413 12.2823 22.8657 12.8788 21.8442 13.2917C19.2818 14.3256 17.7109 14.9593 17.0071 15.2369C16.6784 15.3706 15.6703 15.7686 14.7686 16.1309C13.8669 16.4932 12.9534 16.8594 12.739 16.9417C12.5301 17.0248 12.348 17.1173 12.3331 17.1433C12.3181 17.1694 12.7002 17.4938 13.1715 17.8646C13.9427 18.4638 14.0461 18.5291 14.1698 18.4903C14.2416 18.461 15.3222 18.0283 16.5707 17.5236C17.8184 17.0245 19.1505 16.4865 19.5264 16.337C19.9024 16.1875 20.8987 15.7935 21.735 15.4558C23.1569 14.8799 24.0586 14.5176 27.2902 13.2123C29.334 12.381 29.5838 12.2868 29.628 12.2931C29.6501 12.2962 28.8898 17.8654 27.9323 24.6683L26.1987 37.0325L26.6463 36.8537C26.8907 36.7587 27.8216 36.3893 28.7044 36.0412C29.5927 35.6939 30.3509 35.3901 30.3943 35.3625C30.4494 35.3309 30.8592 32.5561 32.378 21.8285C33.5325 13.6737 34.2663 8.33166 34.2387 8.32775ZM32.619 6.52153C31.9133 5.97671 31.1058 5.35552 30.8272 5.13585C30.3812 4.78549 30.3078 4.74693 30.1998 4.7936C30.0493 4.86239 23.7894 7.38901 21.1505 8.44588C19.1682 9.2409 14.7015 11.0358 10.699 12.6543C9.46864 13.1503 7.68967 13.8615 6.74619 14.2404C5.79798 14.613 5.02634 14.9318 5.02322 14.9539C5.02087 14.9704 5.98234 15.7373 7.16403 16.6593C8.34019 17.5805 9.8763 18.7835 10.5709 19.3268C12.1118 20.5361 13.2532 21.4242 14.0939 22.0895C14.4436 22.3643 14.9204 22.7359 15.1596 22.9162C15.6221 23.2689 18.452 25.4774 20.3575 26.9749C21.0017 27.4772 21.9797 28.2465 22.5378 28.6803C23.0959 29.1141 23.5679 29.4794 23.5932 29.4999C23.6137 29.5141 23.6998 29.025 23.7874 28.4067L23.9468 27.2803L23.6326 27.0331C23.455 26.8953 22.9483 26.4969 22.5015 26.1521C22.0555 25.8017 20.8485 24.8593 19.8137 24.0539C18.7844 23.2492 17.3335 22.1202 16.5931 21.5423C14.6512 20.0227 13.1254 18.8268 11.8671 17.8489C11.2577 17.3797 10.7525 16.9702 10.7446 16.9466C10.7312 16.9221 11.0512 16.7703 11.4508 16.6129C15.272 15.0814 16.7948 14.4691 19.972 13.19C21.9906 12.3776 24.3023 11.4433 25.1087 11.1182C25.915 10.7931 27.0555 10.3351 27.6467 10.0977C28.2378 9.86042 29.0315 9.54477 29.4083 9.38974C29.785 9.2347 30.9492 8.76875 31.9936 8.35343C33.0332 7.93181 33.8892 7.57429 33.8923 7.55221C33.8954 7.53012 33.3192 7.06557 32.619 6.52153ZM28.6659 13.5198C28.6375 13.5214 28.1543 13.712 27.5923 13.9422L26.5653 14.3544L25.3897 22.6582C24.3282 30.1559 24.2022 30.9659 24.1296 30.9219C24.0878 30.899 23.4634 30.4164 22.749 29.8535C22.0338 29.296 20.7061 28.252 19.7983 27.5434C18.8906 26.8348 17.7302 25.9215 17.2132 25.516C16.6961 25.1105 15.1797 23.9272 13.841 22.8816C11.5787 21.1196 10.9393 20.6236 8.21199 18.4859C5.25107 16.1688 4.53038 15.6106 4.5083 15.6075C4.49173 15.6051 4.33764 16.6139 4.16255 17.8507L3.84362 20.1033L4.45696 20.5844C4.79718 20.8465 5.25817 21.2103 5.48708 21.3835C5.98042 21.7575 6.61903 22.259 12.3885 26.7759C14.8427 28.6947 17.3063 30.626 17.8644 31.0598C18.4225 31.4936 19.9081 32.6557 21.16 33.6383C24.4248 36.1956 25.3476 36.9176 25.3752 36.9215C25.3863 36.9231 26.143 31.6575 27.0552 25.2143C27.9667 18.7766 28.6895 13.5118 28.6659 13.5198ZM25.6912 14.7206C25.6691 14.7174 24.7391 15.0814 23.6167 15.5307C22.4943 15.98 21.2158 16.4974 20.7744 16.6714C20.3322 16.851 19.0427 17.3668 17.9077 17.8256C16.7727 18.2844 15.6149 18.7456 15.328 18.8626C15.0363 18.9734 14.8062 19.0873 14.8133 19.1164C14.8205 19.1456 16.1916 20.2408 17.8651 21.5478C23.5746 26.0112 23.9906 26.3348 24.0324 26.3576C24.0529 26.3718 24.4447 23.7634 24.8989 20.5556C25.3531 17.3478 25.7078 14.7229 25.6912 14.7206Z"
    fill="#141414"
  />
  <path
    d="M29.5212 36.5567C28.6392 36.8993 27.4041 37.389 26.7656 37.6421L25.6078 38.1033L25.4246 37.9648C25.3228 37.8884 24.5571 37.29 23.7212 36.631C22.8844 35.9775 21.998 35.2776 21.7438 35.0839C21.4951 34.891 20.8565 34.3895 20.3245 33.9706C17.9161 32.0865 16.6389 31.0834 15.5078 30.2024C12.8918 28.1538 12.344 27.727 10.2348 26.0768C9.03889 25.1359 7.56277 23.9864 6.96521 23.5132C6.36687 23.0455 5.23097 22.1582 4.43924 21.5449L3.00813 20.4356L3.43659 17.4888L3.86978 14.5484L4.55631 14.2739C5.47379 13.9195 10.7713 11.786 15.8118 9.75691C16.4392 9.5022 17.7287 8.98642 18.6785 8.60276C19.6338 8.21988 21.7296 7.37898 23.3367 6.72795C24.9494 6.0777 26.6156 5.40688 27.0397 5.23602C27.4692 5.06593 28.3954 4.69019 29.1008 4.40147C29.8062 4.11274 30.4132 3.88329 30.4408 3.8872C30.4739 3.89189 31.4858 4.66029 32.6991 5.59799C33.9123 6.53569 34.9582 7.34268 35.0253 7.38597L35.1445 7.45916L33.1293 21.6927L31.1142 35.9262L29.5212 36.5567ZM34.2387 8.32775C34.2111 8.32384 33.4544 8.61657 32.5527 8.97888C31.6565 9.34197 30.5995 9.76677 30.2054 9.92498C29.8121 10.0777 28.8324 10.474 28.0261 10.7991C27.2197 11.1242 25.9176 11.6495 25.1294 11.9659C24.3413 12.2823 22.8657 12.8788 21.8442 13.2917C19.2818 14.3256 17.7109 14.9593 17.0071 15.2369C16.6784 15.3706 15.6703 15.7686 14.7686 16.1309C13.8669 16.4932 12.9534 16.8594 12.739 16.9417C12.5301 17.0248 12.348 17.1173 12.3331 17.1433C12.3181 17.1694 12.7002 17.4938 13.1715 17.8646C13.9427 18.4638 14.0461 18.5291 14.1698 18.4903C14.2416 18.461 15.3222 18.0283 16.5707 17.5236C17.8184 17.0245 19.1505 16.4865 19.5264 16.337C19.9024 16.1875 20.8987 15.7935 21.735 15.4558C23.1569 14.8799 24.0586 14.5176 27.2902 13.2123C29.334 12.381 29.5838 12.2868 29.628 12.2931C29.6501 12.2962 28.8898 17.8654 27.9323 24.6683L26.1987 37.0325L26.6463 36.8537C26.8907 36.7587 27.8216 36.3893 28.7044 36.0412C29.5927 35.6939 30.3509 35.3901 30.3943 35.3625C30.4494 35.3309 30.8592 32.5561 32.378 21.8285C33.5325 13.6737 34.2663 8.33166 34.2387 8.32775ZM32.619 6.52153C31.9133 5.97671 31.1058 5.35552 30.8272 5.13585C30.3812 4.78549 30.3078 4.74693 30.1998 4.7936C30.0493 4.86239 23.7894 7.38901 21.1505 8.44588C19.1682 9.2409 14.7015 11.0358 10.699 12.6543C9.46864 13.1503 7.68967 13.8615 6.74619 14.2404C5.79798 14.613 5.02634 14.9318 5.02322 14.9539C5.02087 14.9704 5.98234 15.7373 7.16403 16.6593C8.34019 17.5805 9.8763 18.7835 10.5709 19.3268C12.1118 20.5361 13.2532 21.4242 14.0939 22.0895C14.4436 22.3643 14.9204 22.7359 15.1596 22.9162C15.6221 23.2689 18.452 25.4774 20.3575 26.9749C21.0017 27.4772 21.9797 28.2465 22.5378 28.6803C23.0959 29.1141 23.5679 29.4794 23.5932 29.4999C23.6137 29.5141 23.6998 29.025 23.7874 28.4067L23.9468 27.2803L23.6326 27.0331C23.455 26.8953 22.9483 26.4969 22.5015 26.1521C22.0555 25.8017 20.8485 24.8593 19.8137 24.0539C18.7844 23.2492 17.3335 22.1202 16.5931 21.5423C14.6512 20.0227 13.1254 18.8268 11.8671 17.8489C11.2577 17.3797 10.7525 16.9702 10.7446 16.9466C10.7312 16.9221 11.0512 16.7703 11.4508 16.6129C15.272 15.0814 16.7948 14.4691 19.972 13.19C21.9906 12.3776 24.3023 11.4433 25.1087 11.1182C25.915 10.7931 27.0555 10.3351 27.6467 10.0977C28.2378 9.86042 29.0315 9.54477 29.4083 9.38974C29.785 9.2347 30.9492 8.76875 31.9936 8.35343C33.0332 7.93181 33.8892 7.57429 33.8923 7.55221C33.8954 7.53012 33.3192 7.06557 32.619 6.52153ZM28.6659 13.5198C28.6375 13.5214 28.1543 13.712 27.5923 13.9422L26.5653 14.3544L25.3897 22.6582C24.3282 30.1559 24.2022 30.9659 24.1296 30.9219C24.0878 30.899 23.4634 30.4164 22.749 29.8535C22.0338 29.296 20.7061 28.252 19.7983 27.5434C18.8906 26.8348 17.7302 25.9215 17.2132 25.516C16.6961 25.1105 15.1797 23.9272 13.841 22.8816C11.5787 21.1196 10.9393 20.6236 8.21199 18.4859C5.25107 16.1688 4.53038 15.6106 4.5083 15.6075C4.49173 15.6051 4.33764 16.6139 4.16255 17.8507L3.84362 20.1033L4.45696 20.5844C4.79718 20.8465 5.25817 21.2103 5.48708 21.3835C5.98042 21.7575 6.61903 22.259 12.3885 26.7759C14.8427 28.6947 17.3063 30.626 17.8644 31.0598C18.4225 31.4936 19.9081 32.6557 21.16 33.6383C24.4248 36.1956 25.3476 36.9176 25.3752 36.9215C25.3863 36.9231 26.143 31.6575 27.0552 25.2143C27.9667 18.7766 28.6895 13.5118 28.6659 13.5198ZM25.6912 14.7206C25.6691 14.7174 24.7391 15.0814 23.6167 15.5307C22.4943 15.98 21.2158 16.4974 20.7744 16.6714C20.3322 16.851 19.0427 17.3668 17.9077 17.8256C16.7727 18.2844 15.6149 18.7456 15.328 18.8626C15.0363 18.9734 14.8062 19.0873 14.8133 19.1164C14.8205 19.1456 16.1916 20.2408 17.8651 21.5478C23.5746 26.0112 23.9906 26.3348 24.0324 26.3576C24.0529 26.3718 24.4447 23.7634 24.8989 20.5556C25.3531 17.3478 25.7078 14.7229 25.6912 14.7206Z"
    stroke="#141414"
    strokeWidth="0.4"
    mask="url(#path-1-outside-1)"
  />
  <style>
    @media (prefers-color-scheme: dark) {
      mask {
        fill: #F6F7F7;
      }

      path {
        fill: #F6F7F7;
        stroke: #F6F7F7;
      }
    }
  </style>
</svg>
